<svg xmlns="http://www.w3.org/2000/svg" width="1024" height="1024" viewBox="0 0 1024 1024">
  <rect width="1024" height="1024" rx="232" fill="#100F0F"/>
  <g
    transform="translate(222 202) scale(24)"
    fill="none"
    stroke="#CECDC3"
    stroke-width="1.35"
    stroke-linecap="round"
    stroke-linejoin="round"
  >
    <path d="M11.95 2h.1c3.4 0 5.16.02 6.36 1.22 1.21 1.21 1.24 2.97 1.24 6.42v2.72c0 3.45-.03 5.21-1.24 6.42C17.21 19.98 15.45 20 12.05 20h-.1c-3.4 0-5.16-.02-6.36-1.22-1.21-1.21-1.24-2.97-1.24-6.42V9.64c0-3.45.03-5.21 1.24-6.42C6.79 2.02 8.55 2 11.95 2Z"/>
    <path d="M4.4 8.9H3c-.55 0-1 .45-1 1v1.2c0 .31.15.6.4.8l2 1.5"/>
    <path d="M19.6 8.9H21c.55 0 1 .45 1 1v1.2c0 .31-.15.6-.4.8l-2 1.5"/>
    <path d="M5 5h14"/>
    <path d="M4.75 12.9h14.5"/>
    <path d="M6.6 16h2"/>
    <path d="M15.4 16h2"/>
    <path d="M6.3 19.35V21c0 .41.34.75.75.75H8.5c.41 0 .75-.34.75-.75v-1"/>
    <path d="M14.75 20v1c0 .41.34.75.75.75h1.45c.41 0 .75-.34.75-.75v-1.65"/>
  </g>
</svg>
